/* XPM */
static char * log_mid_xpm[] = {
"192 64 17 1",
" 	c None",
".	c #2F36F5",
"+	c #73ABC6",
"@	c #90CCE8",
"#	c #8ECAE6",
"$	c #8FCBE7",
"%	c #8FCBE6",
"&	c #527687",
"*	c #000000",
"=	c #73ABC7",
"-	c #527787",
";	c #8FCBE5",
">	c #517686",
",	c #74ACC7",
"'	c #74ABC7",
")	c #517586",
"!	c #73ACC7",
".............+@#$$$$$%&**************************************************************************************************************************************************&%$$$$$#@+.............",
".............+@#$$$$$%&**************************************************************************************************************************************************&%$$$$$#@+.............",
".............+@#$$$$$%&**************************************************************************************************************************************************&%$$$$$#@+.............",
".............=@#$$$$$%-**************************************************************************************************************************************************-%$$$$$#@=.............",
".............=@#$$$$$%-**************************************************************************************************************************************************-%$$$$$#@=.............",
".............=@#$$$$$%-**************************************************************************************************************************************************-%$$$$$#@=.............",
".............=@#$$$$$%&**************************************************************************************************************************************************&%$$$$$#@=.............",
".............+@#$$$$$;>**************************************************************************************************************************************************>;$$$$$#@+.............",
".............=@#$$$$$;>**************************************************************************************************************************************************>;$$$$$#@=.............",
".............,@#$$$$$;>**************************************************************************************************************************************************>;$$$$$#@,.............",
".............'@#$$$$$%>**************************************************************************************************************************************************>%$$$$$#@'.............",
".............'@#$$$$$%)**************************************************************************************************************************************************)%$$$$$#@'.............",
".............'@#$$$$$%)**************************************************************************************************************************************************)%$$$$$#@'.............",
".............,@#$$$$$%)**************************************************************************************************************************************************)%$$$$$#@,.............",
".............,@#$$$$$%>**************************************************************************************************************************************************>%$$$$$#@,.............",
".............!@#$$$$$;&**************************************************************************************************************************************************&;$$$$$#@!.............",
".............!@#$$$$$%&**************************************************************************************************************************************************&%$$$$$#@!.............",
".............!@#$$$$$%&**************************************************************************************************************************************************&%$$$$$#@!.............",
".............!@#$$$$$%&**************************************************************************************************************************************************&%$$$$$#@!.............",
".............!@#$$$$$%&**************************************************************************************************************************************************&%$$$$$#@!.............",
".............!@#$$$$$%&**************************************************************************************************************************************************&%$$$$$#@!.............",
".............!@#$$$$$%&**************************************************************************************************************************************************&%$$$$$#@!.............",
".............!@#$$$$$%&**************************************************************************************************************************************************&%$$$$$#@!.............",
".............!@#$$$$$%&**************************************************************************************************************************************************&%$$$$$#@!.............",
".............!@#$$$$$%&**************************************************************************************************************************************************&%$$$$$#@!.............",
".............!@#$$$$$%&**************************************************************************************************************************************************&%$$$$$#@!.............",
".............!@#$$$$$%&**************************************************************************************************************************************************&%$$$$$#@!.............",
".............!@#$$$$$%&**************************************************************************************************************************************************&%$$$$$#@!.............",
".............,@#$$$$$%&**************************************************************************************************************************************************&%$$$$$#@,.............",
".............,@#$$$$$%&**************************************************************************************************************************************************&%$$$$$#@,.............",
".............!@#$$$$$%&**************************************************************************************************************************************************&%$$$$$#@!.............",
".............!@#$$$$$%&**************************************************************************************************************************************************&%$$$$$#@!.............",
".............+@#$$$$$%&**************************************************************************************************************************************************&%$$$$$#@+.............",
".............+@#$$$$$%&**************************************************************************************************************************************************&%$$$$$#@+.............",
".............+@#$$$$$%&**************************************************************************************************************************************************&%$$$$$#@+.............",
".............=@#$$$$$%-**************************************************************************************************************************************************-%$$$$$#@=.............",
".............=@#$$$$$%-**************************************************************************************************************************************************-%$$$$$#@=.............",
".............=@#$$$$$%-**************************************************************************************************************************************************-%$$$$$#@=.............",
".............=@#$$$$$%&**************************************************************************************************************************************************&%$$$$$#@=.............",
".............+@#$$$$$;>**************************************************************************************************************************************************>;$$$$$#@+.............",
".............=@#$$$$$;>**************************************************************************************************************************************************>;$$$$$#@=.............",
".............,@#$$$$$;>**************************************************************************************************************************************************>;$$$$$#@,.............",
".............'@#$$$$$%>**************************************************************************************************************************************************>%$$$$$#@'.............",
".............'@#$$$$$%)**************************************************************************************************************************************************)%$$$$$#@'.............",
".............'@#$$$$$%)**************************************************************************************************************************************************)%$$$$$#@'.............",
".............,@#$$$$$%)**************************************************************************************************************************************************)%$$$$$#@,.............",
".............,@#$$$$$%>**************************************************************************************************************************************************>%$$$$$#@,.............",
".............!@#$$$$$;&**************************************************************************************************************************************************&;$$$$$#@!.............",
".............!@#$$$$$%&**************************************************************************************************************************************************&%$$$$$#@!.............",
".............!@#$$$$$%&**************************************************************************************************************************************************&%$$$$$#@!.............",
".............!@#$$$$$%&**************************************************************************************************************************************************&%$$$$$#@!.............",
".............!@#$$$$$%&**************************************************************************************************************************************************&%$$$$$#@!.............",
".............!@#$$$$$%&**************************************************************************************************************************************************&%$$$$$#@!.............",
".............!@#$$$$$%&**************************************************************************************************************************************************&%$$$$$#@!.............",
".............!@#$$$$$%&**************************************************************************************************************************************************&%$$$$$#@!.............",
".............!@#$$$$$%&**************************************************************************************************************************************************&%$$$$$#@!.............",
".............!@#$$$$$%&**************************************************************************************************************************************************&%$$$$$#@!.............",
".............!@#$$$$$%&**************************************************************************************************************************************************&%$$$$$#@!.............",
".............!@#$$$$$%&**************************************************************************************************************************************************&%$$$$$#@!.............",
".............!@#$$$$$%&**************************************************************************************************************************************************&%$$$$$#@!.............",
".............,@#$$$$$%&**************************************************************************************************************************************************&%$$$$$#@,.............",
".............,@#$$$$$%&**************************************************************************************************************************************************&%$$$$$#@,.............",
".............!@#$$$$$%&**************************************************************************************************************************************************&%$$$$$#@!.............",
".............!@#$$$$$%&**************************************************************************************************************************************************&%$$$$$#@!............."};
