/* XPM */
static char * x_red_64_xpm[] = {
"64 64 188 2",
"  	c None",
". 	c #000000",
"+ 	c #190000",
"@ 	c #510000",
"# 	c #590000",
"$ 	c #7E0000",
"% 	c #8F0000",
"& 	c #880000",
"* 	c #900000",
"= 	c #950000",
"- 	c #870000",
"; 	c #520000",
"> 	c #3D0000",
", 	c #990000",
"' 	c #9D0000",
") 	c #930000",
"! 	c #970000",
"~ 	c #A30000",
"{ 	c #AD0000",
"] 	c #B10000",
"^ 	c #B20000",
"/ 	c #B00000",
"( 	c #A90000",
"_ 	c #9E0000",
": 	c #760000",
"< 	c #860000",
"[ 	c #850000",
"} 	c #9F0000",
"| 	c #D40000",
"1 	c #F70000",
"2 	c #FA0000",
"3 	c #FE0000",
"4 	c #FF0000",
"5 	c #FC0000",
"6 	c #F80000",
"7 	c #E50000",
"8 	c #B50000",
"9 	c #8E0000",
"0 	c #890000",
"a 	c #770000",
"b 	c #640000",
"c 	c #980000",
"d 	c #8D0000",
"e 	c #D70000",
"f 	c #F30000",
"g 	c #FD0000",
"h 	c #E40000",
"i 	c #B30000",
"j 	c #8C0000",
"k 	c #660000",
"l 	c #3E0000",
"m 	c #9B0000",
"n 	c #F50000",
"o 	c #F10000",
"p 	c #EF0000",
"q 	c #F40000",
"r 	c #F90000",
"s 	c #960000",
"t 	c #C60000",
"u 	c #C80000",
"v 	c #AA0000",
"w 	c #A50000",
"x 	c #AB0000",
"y 	c #B40000",
"z 	c #BB0000",
"A 	c #BC0000",
"B 	c #B90000",
"C 	c #AC0000",
"D 	c #AF0000",
"E 	c #C70000",
"F 	c #EE0000",
"G 	c #7A0000",
"H 	c #940000",
"I 	c #BD0000",
"J 	c #C00000",
"K 	c #E10000",
"L 	c #FB0000",
"M 	c #EC0000",
"N 	c #910000",
"O 	c #7D0000",
"P 	c #1C0000",
"Q 	c #7B0000",
"R 	c #BE0000",
"S 	c #EB0000",
"T 	c #C50000",
"U 	c #E00000",
"V 	c #920000",
"W 	c #A00000",
"X 	c #C20000",
"Y 	c #D90000",
"Z 	c #F20000",
"` 	c #B80000",
" .	c #CF0000",
"..	c #780000",
"+.	c #A10000",
"@.	c #BF0000",
"#.	c #E60000",
"$.	c #7C0000",
"%.	c #DB0000",
"&.	c #9A0000",
"*.	c #C90000",
"=.	c #610000",
"-.	c #CC0000",
";.	c #800000",
">.	c #6C0000",
",.	c #D60000",
"'.	c #DC0000",
").	c #6E0000",
"!.	c #7F0000",
"~.	c #E90000",
"{.	c #B70000",
"].	c #680000",
"^.	c #380000",
"/.	c #E30000",
"(.	c #BA0000",
"_.	c #360000",
":.	c #6F0000",
"<.	c #EA0000",
"[.	c #A80000",
"}.	c #700000",
"|.	c #750000",
"1.	c #AE0000",
"2.	c #CB0000",
"3.	c #A60000",
"4.	c #3C0000",
"5.	c #F60000",
"6.	c #300000",
"7.	c #570000",
"8.	c #D10000",
"9.	c #ED0000",
"0.	c #D80000",
"a.	c #710000",
"b.	c #E20000",
"c.	c #CD0000",
"d.	c #830000",
"e.	c #E70000",
"f.	c #5D0000",
"g.	c #4D0000",
"h.	c #DF0000",
"i.	c #690000",
"j.	c #390000",
"k.	c #630000",
"l.	c #2E0000",
"m.	c #3F0000",
"n.	c #5B0000",
"o.	c #CE0000",
"p.	c #8A0000",
"q.	c #6D0000",
"r.	c #2D0000",
"s.	c #B60000",
"t.	c #A20000",
"u.	c #150000",
"v.	c #730000",
"w.	c #820000",
"x.	c #D20000",
"y.	c #E80000",
"z.	c #5C0000",
"A.	c #560000",
"B.	c #F00000",
"C.	c #370000",
"D.	c #720000",
"E.	c #620000",
"F.	c #340000",
"G.	c #600000",
"H.	c #650000",
"I.	c #8B0000",
"J.	c #580000",
"K.	c #460000",
"L.	c #9C0000",
"M.	c #1F0000",
"N.	c #D30000",
"O.	c #6A0000",
"P.	c #670000",
"Q.	c #D50000",
"R.	c #CA0000",
"S.	c #6B0000",
"T.	c #5F0000",
"U.	c #840000",
"V.	c #5E0000",
"W.	c #A70000",
"X.	c #DD0000",
"Y.	c #330000",
"Z.	c #5A0000",
"`.	c #500000",
" +	c #D00000",
".+	c #140000",
"++	c #310000",
"@+	c #3B0000",
". . . . . . . . . . . . . . . . . . . . . . . . . . . . . . . . . . . . . . . . . . . . . . . . . . . . . . . . . . . . . . . . ",
". . . . . . . . . . . . . . . . . . . . . . . . . . . . . . . . . . . . . . . . . . . . . . . . . . . . . . . . . . . . . . . . ",
". . . . . . . . . . . . . . . . . . . . . . . . . . . . . . . . . . . . . . . . . . . . . . . . . . . . . . . . . . . . . . . . ",
". . . . . . . . . . . . . . . . . . . . . . . . . . . . . . . . . . . . . . . . . . . . . . . . . . . . . . . . . . . . . . . . ",
". . . . . . . . . . . . . . . . . . . . . . . . . . . . . . . . . . . . . . . . . . . . . . . . . . . . . . . . . . . . . . . . ",
". . . . . . . . . . . . . . . . . . . . . . . . + @ # $ % & * = = % - % $ # ; + . . . . . . . . . . . . . . . . . . . . . . . . ",
". . . . . . . . . . . . . . . . . . . . . + > - & , ' ) ! ~ { ] ^ / ( _ ! ' ! & - > + . . . . . . . . . . . . . . . . . . . . . ",
". . . . . . . . . . . . . . . . . . . . : < _ [ } | 1 2 3 4 4 4 4 4 4 3 5 6 7 8 9 ! 0 a . . . . . . . . . . . . . . . . . . . . ",
". . . . . . . . . . . . . . . . . . b c d , e f 4 4 4 4 4 4 4 4 4 4 4 4 4 4 4 4 g h i j ) k . . . . . . . . . . . . . . . . . . ",
". . . . . . . . . . . . . . . . l * m ! e 4 4 4 4 4 4 4 2 n o p p o q r 4 4 4 4 4 4 4 o 8 ! % l . . . . . . . . . . . . . . . . ",
". . . . . . . . . . . . . . . a s d t 4 4 4 4 4 3 n u v w x y z A B / C D E F 3 4 4 4 4 4 o ! * a . . . . . . . . . . . . . . . ",
". . . . . . . . . . . . . . G } H 2 4 4 4 4 5 I } J K f L g 3 3 3 3 3 5 r M | D I o 4 4 4 4 3 u N O . . . . . . . . . . . . . . ",
". . . . . . . . . . . . P Q c A 3 4 4 4 6 R ( e 1 4 4 4 4 4 4 4 4 4 4 4 4 4 4 3 S T A o 4 4 4 4 U V Q P . . . . . . . . . . . . ",
". . . . . . . . . . . . Q W X 4 4 4 4 e c Y L 4 4 4 4 4 4 4 4 4 4 4 4 4 4 4 4 4 4 4 Z `  .3 4 4 4 f } G . . . . . . . . . . . . ",
". . . . . . . . . . . .., T 4 4 4 g +.@.6 4 4 4 4 4 4 4 4 4 4 4 4 4 4 4 4 4 4 4 4 4 4 4 #.( 2 4 4 4 6 H $.. . . . . . . . . . . ",
". . . . . . . . . . : } E 4 4 4 1 s %.g 4 4 4 4 4 4 4 4 4 4 4 4 4 4 4 4 4 4 4 4 4 4 4 4 4 r ^ F 4 4 4 o 9 : . . . . . . . . . . ",
". . . . . . . . . l = { 4 4 4 n &.h 4 4 4 4 4 4 4 4 4 4 4 4 4 4 4 4 4 4 4 4 4 4 4 4 4 4 4 4 3 R M 4 4 4 #.[ l . . . . . . . . . ",
". . . . . . . . . 9 = 5 4 4 5 H 7 4 4 4 4 4 4 4 4 4 4 4 4 4 4 4 4 4 4 4 4 4 4 4 4 4 4 4 4 4 4 4 B 1 4 4 4 *.< . . . . . . . . . ",
". . . . . . . . =.} S 4 4 4 = U 4 4 4 4 4 4 4 4 4 4 4 4 4 4 4 4 4 4 4 4 4 4 4 4 4 4 4 4 4 4 4 4 5 v 2 4 4 4 ( b . . . . . . . . ",
". . . . . . . . ) ` 4 4 4 *.-.3 4 4 4 4 4 4 4 4 4 4 4 4 4 4 4 4 4 4 4 4 4 4 4 4 4 4 4 4 4 4 4 4 4 2 @.4 4 4 p ;.. . . . . . . . ",
". . . . . . . >.H n 4 4 F W L 4 4 4 4 4 4 4 4 4 4 4 4 4 4 4 4 4 4 4 4 4 4 4 4 4 4 4 4 4 4 4 4 4 4 4 ,.'.4 4 4 J ).. . . . . . . ",
". . . . . . + !.*.4 4 4 v ~.4 4 4 4 4 4 4 4 4 4 4 4 4 4 4 4 4 4 4 4 4 4 4 4 4 4 4 4 4 4 4 4 4 4 4 4 4 {.4 4 4 1 ].+ . . . . . . ",
". . . . . . ^._ F 4 4 /.(.4 4 4 4 4 4 4 4 4 4 4 4 4 4 4 4 4 4 4 4 4 4 4 4 4 4 4 4 4 4 4 4 4 4 4 4 4 4 #.t 4 4 4 I _.. . . . . . ",
". . . . . . :./ 4 4 4 w <.4 4 4 4 4 4 4 4 4 4 4 4 4 4 4 4 4 4 4 4 4 4 4 4 4 4 4 4 4 4 4 4 4 4 4 4 4 4 4 [.3 4 4 f }.. . . . . . ",
". . . . . + |./.4 4 L 1.g 4 4 4 4 4 4 4 4 4 4 4 4 4 4 4 4 4 4 4 4 4 4 4 4 4 4 4 4 4 4 4 4 4 4 4 4 4 4 4 7 #.4 4 3 a + . . . . . ",
". . . . . > ! L 4 4 2.'.4 4 4 4 4 4 4 4 4 4 4 4 4 4 4 4 4 4 4 4 4 4 4 4 4 4 4 4 4 4 4 4 4 4 4 4 4 4 4 4 6 3.4 4 4 y 4.. . . . . ",
". . . . . > B 3 4 4 3.f 4 4 4 4 4 4 4 4 4 4 4 4 4 4 4 4 4 4 4 4 4 4 4 4 4 4 4 4 4 4 4 4 4 4 4 4 4 4 4 4 4 c 5.4 4 F 6.. . . . . ",
". . . . . 7.8.4 4 5.~ g 4 4 4 4 4 4 4 4 4 4 4 4 4 4 4 4 4 4 4 4 4 4 4 4 4 4 4 4 4 4 4 4 4 4 4 4 4 4 4 4 4 y <.4 4 4 =.. . . . . ",
". . . . . >.U 4 4 9.B 3 4 4 4 4 4 4 4 4 4 4 4 4 4 4 4 4 4 4 4 4 4 4 4 4 4 4 4 4 4 4 4 4 4 4 4 4 4 4 4 4 4 0.e 4 4 4 !.. . . . . ",
". . . . . a.p 4 4 b. .4 4 4 4 4 4 4 4 4 4 4 4 4 4 4 4 4 4 4 4 4 4 4 4 4 4 4 4 4 4 4 4 4 4 4 4 4 4 4 4 4 4 F D 4 4 4 9 . . . . . ",
". . . . . G 2 4 4 c.K 4 4 4 4 4 4 4 4 4 4 4 4 4 4 4 4 4 4 4 4 4 4 4 4 4 4 4 4 4 4 4 4 4 4 4 4 4 4 4 4 4 4 n _ 4 4 4 +.. . . . . ",
". . . . . d.4 4 4 J ~.4 4 4 4 4 4 4 4 4 4 4 4 4 4 4 4 4 4 4 4 4 4 4 4 4 4 4 4 4 4 4 4 4 4 4 4 4 4 4 4 4 4 5.% 4 4 4 C . . . . . ",
". . . . . d.4 4 4 (.M 4 4 4 4 4 4 4 4 4 4 4 4 4 4 4 4 4 4 4 4 4 4 4 4 4 4 4 4 4 4 4 4 4 4 4 4 4 4 4 4 4 4 o & 4 4 4 1.. . . . . ",
". . . . . G 4 4 4 A <.4 4 4 4 4 4 4 4 4 4 4 4 4 4 4 4 4 4 4 4 4 4 4 4 4 4 4 4 4 4 4 4 4 4 4 4 4 4 4 4 4 4 e.j 4 4 4 w . . . . . ",
". . . . . }.4 4 4 u U 4 4 4 4 4 4 4 4 4 4 4 4 4 4 4 4 4 4 4 4 4 4 4 4 4 4 4 4 4 4 4 4 4 4 4 4 4 4 4 4 4 4 ,.&.4 4 4 c . . . . . ",
". . . . . f.4 4 4 U *.4 4 4 4 4 4 4 4 4 4 4 4 4 4 4 4 4 4 4 4 4 4 4 4 4 4 4 4 4 4 4 4 4 4 4 4 4 4 4 4 4 4 ` i 4 4 4 0 . . . . . ",
". . . . . g.5.4 4 ~.w 4 4 4 4 4 4 4 4 4 4 4 4 4 4 4 4 4 4 4 4 4 4 4 4 4 4 4 4 4 4 4 4 4 4 4 4 4 4 4 4 4 5 9 h.4 4 4 i.. . . . . ",
". . . . . j.t 4 4 f !.g 4 4 4 4 4 4 4 4 4 4 4 4 4 4 4 4 4 4 4 4 4 4 4 4 4 4 4 4 4 4 4 4 4 4 4 4 4 4 4 4 q k.S 4 4 4 l.. . . . . ",
". . . . . m.& 4 4 4 $.5.4 4 4 4 4 4 4 4 4 4 4 4 4 4 4 4 4 4 4 4 4 4 4 4 4 4 4 4 4 4 4 4 4 4 4 4 4 4 4 4 c.n.5 4 4 | ^.. . . . . ",
". . . . . + =.g 4 4 J o.4 4 4 4 4 4 4 4 4 4 4 4 4 4 4 4 4 4 4 4 4 4 4 4 4 4 4 4 4 4 4 4 4 4 4 4 4 4 4 r ' ! 4 4 4 p.+ . . . . . ",
". . . . . . ].5.4 4 4 :.3 4 4 4 4 4 4 4 4 4 4 4 4 4 4 4 4 4 4 4 4 4 4 4 4 4 4 4 4 4 4 4 4 4 4 4 4 4 4 '.q.Z 4 4 L >.. . . . . . ",
". . . . . . r.s.4 4 4 ;.Y 4 4 4 4 4 4 4 4 4 4 4 4 4 4 4 4 4 4 4 4 4 4 4 4 4 4 4 4 4 4 4 4 4 4 4 4 4 L t.:.4 4 4 q r.. . . . . . ",
". . . . . . u.4.3 4 4 F v.3 4 4 4 4 4 4 4 4 4 4 4 4 4 4 4 4 4 4 4 4 4 4 4 4 4 4 4 4 4 4 4 4 4 4 4 4 E ).-.4 4 4 w.u.. . . . . . ",
". . . . . . . b x.4 4 4 9 R 4 4 4 4 4 4 4 4 4 4 4 4 4 4 4 4 4 4 4 4 4 4 4 4 4 4 4 4 4 4 4 4 4 4 4 y.= $.4 4 4 ~.z.. . . . . . . ",
". . . . . . . . k.4 4 4 p m.#.4 4 4 4 4 4 4 4 4 4 4 4 4 4 4 4 4 4 4 4 4 4 4 4 4 4 4 4 4 4 4 4 4 n W A.U 4 4 4 1.. . . . . . . . ",
". . . . . . . . n.] 4 4 4 e >.Z 4 4 4 4 4 4 4 4 4 4 4 4 4 4 4 4 4 4 4 4 4 4 4 4 4 4 4 4 4 4 4 r x w.8 4 4 4 #.@ . . . . . . . . ",
". . . . . . . . . k 4 4 4 4 & j B.4 4 4 4 4 4 4 4 4 4 4 4 4 4 4 4 4 4 4 4 4 4 4 4 4 4 4 4 4 6 ] p.k 4 4 4 4 [ . . . . . . . . . ",
". . . . . . . . . C.D.3 4 4 4 i.9 y.4 4 4 4 4 4 4 4 4 4 4 4 4 4 4 4 4 4 4 4 4 4 4 4 4 4 4 Z x 0 E.4 4 4 4 i F.. . . . . . . . . ",
". . . . . . . . . . G. .4 4 4 4 H.< e g 4 4 4 4 4 4 4 4 4 4 4 4 4 4 4 4 4 4 4 4 4 4 4 4 h ' I.E.r 4 4 4 7 G.. . . . . . . . . . ",
". . . . . . . . . . . ).x.4 4 4 4 >.D.^ Z 4 4 4 4 4 4 4 4 4 4 4 4 4 4 4 4 4 4 4 4 4 1 @.* 0 J.L 4 4 4 y.k.. . . . . . . . . . . ",
". . . . . . . . . . . . E.o.4 4 4 4 8 K.H X F 4 4 4 4 4 4 4 4 4 4 4 4 4 4 4 4 4 q 2.L.* H.! 4 4 4 4 B.H.. . . . . . . . . . . . ",
". . . . . . . . . . . . M.E.N.4 4 4 4 %.].O.= (.h.q g 4 4 4 4 4 4 4 4 4 3 n h J m 9 G P.x.4 4 4 4 <.k M.. . . . . . . . . . . . ",
". . . . . . . . . . . . . . q.Q.4 4 4 4 4 s.z.a.< , ] E Y h S 9.S #.%.R.i ' % & !.=.w 4 4 4 4 4 #.E.. . . . . . . . . . . . . . ",
". . . . . . . . . . . . . . . G.d.4 4 4 4 4 g | }.@ S.[ j * ) V N N 9 j 0 : # q.E g 4 4 4 4 4 (.T.. . . . . . . . . . . . . . . ",
". . . . . . . . . . . . . . . . C.}.t 4 4 4 4 4 4 p /.C U.b T.V.V.=.H.;.W.X.9.4 4 4 4 4 4 y.- Y.. . . . . . . . . . . . . . . . ",
". . . . . . . . . . . . . . . . . . Z.N K 4 4 4 4 4 4 4 4 4 4 r r 4 4 4 4 4 4 4 4 4 4 S ^ `.. . . . . . . . . . . . . . . . . . ",
". . . . . . . . . . . . . . . . . . . . =.i.o r 4 4 4 4 4 4 4 4 4 4 4 4 4 4 4 4 L q d z.. . . . . . . . . . . . . . . . . . . . ",
". . . . . . . . . . . . . . . . . . . . . u.r.q.[  +4 4 4 4 4 4 4 4 4 4 4 4 X.) }.r..+. . . . . . . . . . . . . . . . . . . . . ",
". . . . . . . . . . . . . . . . . . . . . . . . + 4.++].V _ 1.{.` ] W = :.@+j.+ . . . . . . . . . . . . . . . . . . . . . . . . ",
". . . . . . . . . . . . . . . . . . . . . . . . . . . . . . . . . . . . . . . . . . . . . . . . . . . . . . . . . . . . . . . . ",
". . . . . . . . . . . . . . . . . . . . . . . . . . . . . . . . . . . . . . . . . . . . . . . . . . . . . . . . . . . . . . . . ",
". . . . . . . . . . . . . . . . . . . . . . . . . . . . . . . . . . . . . . . . . . . . . . . . . . . . . . . . . . . . . . . . ",
". . . . . . . . . . . . . . . . . . . . . . . . . . . . . . . . . . . . . . . . . . . . . . . . . . . . . . . . . . . . . . . . ",
". . . . . . . . . . . . . . . . . . . . . . . . . . . . . . . . . . . . . . . . . . . . . . . . . . . . . . . . . . . . . . . . "};
