/* XPM */
static char * x_yellow_64_xpm[] = {
"64 64 639 2",
"  	c None",
". 	c #000000",
"+ 	c #010400",
"@ 	c #011500",
"# 	c #0C2600",
"$ 	c #190500",
"% 	c #478E00",
"& 	c #558500",
"* 	c #546F00",
"= 	c #636F00",
"- 	c #6F7300",
"; 	c #546E00",
"> 	c #558400",
", 	c #0C4700",
"' 	c #3D8000",
") 	c #696A00",
"! 	c #976C00",
"~ 	c #A46C00",
"{ 	c #9A7100",
"] 	c #8B6E00",
"^ 	c #897000",
"/ 	c #8D7100",
"( 	c #8F7200",
"_ 	c #907200",
": 	c #8C6E00",
"< 	c #8A6A00",
"[ 	c #996D00",
"} 	c #A06800",
"| 	c #986B00",
"1 	c #6B6A00",
"2 	c #094700",
"3 	c #000300",
"4 	c #237300",
"5 	c #677A00",
"6 	c #916E00",
"7 	c #8F6F00",
"8 	c #A37E00",
"9 	c #CA9C00",
"0 	c #E5B700",
"a 	c #EECB00",
"b 	c #F5D700",
"c 	c #F9DC00",
"d 	c #FCDF00",
"e 	c #FBDE00",
"f 	c #F7DB00",
"g 	c #F1D400",
"h 	c #E8C500",
"i 	c #DBAF00",
"j 	c #B58D00",
"k 	c #976F00",
"l 	c #8F6400",
"m 	c #966A00",
"n 	c #6A7A00",
"o 	c #227300",
"p 	c #094500",
"q 	c #6D7700",
"r 	c #9A6900",
"s 	c #9B7300",
"t 	c #9F8000",
"u 	c #D2A800",
"v 	c #FACE00",
"w 	c #FFE500",
"x 	c #FFEB00",
"y 	c #FFE800",
"z 	c #FFE400",
"A 	c #FFE000",
"B 	c #FFDF00",
"C 	c #FFE200",
"D 	c #FFEA00",
"E 	c #FFEC00",
"F 	c #E1C400",
"G 	c #B69500",
"H 	c #9D6E00",
"I 	c #986200",
"J 	c #0B4500",
"K 	c #011C00",
"L 	c #497B00",
"M 	c #A36800",
"N 	c #917600",
"O 	c #A18300",
"P 	c #F3BC00",
"Q 	c #FFE700",
"R 	c #FFE100",
"S 	c #FEEC00",
"T 	c #FDEE00",
"U 	c #FCEE00",
"V 	c #FDED00",
"W 	c #FFE600",
"X 	c #FFEE00",
"Y 	c #FFE300",
"Z 	c #C0A200",
"` 	c #926E00",
" .	c #A46500",
"..	c #4A7B00",
"+.	c #106400",
"@.	c #816700",
"#.	c #9D7700",
"$.	c #F2C000",
"%.	c #FFE900",
"&.	c #FFDC00",
"*.	c #FFF700",
"=.	c #EDD200",
"-.	c #CCA900",
";.	c #AD7D00",
">.	c #A77900",
",.	c #A87800",
"'.	c #A87900",
").	c #AB7B00",
"!.	c #AF8000",
"~.	c #B78D00",
"{.	c #CBA700",
"].	c #E7CB00",
"^.	c #FFF100",
"/.	c #FFEF00",
"(.	c #FFDD00",
"_.	c #FDEB00",
":.	c #C09B00",
"<.	c #916400",
"[.	c #836900",
"}.	c #0A6400",
"|.	c #126600",
"1.	c #9C6D00",
"2.	c #8A7100",
"3.	c #D39D00",
"4.	c #FFF600",
"5.	c #E4D000",
"6.	c #BB9800",
"7.	c #A67400",
"8.	c #C09500",
"9.	c #D8B000",
"0.	c #E9C300",
"a.	c #F3CF00",
"b.	c #F8D500",
"c.	c #FAD900",
"d.	c #F9D700",
"e.	c #F7D300",
"f.	c #F0CA00",
"g.	c #E3BC00",
"h.	c #D0A700",
"i.	c #B68700",
"j.	c #BD9400",
"k.	c #DFC900",
"l.	c #FFF000",
"m.	c #FFDE00",
"n.	c #ECDA00",
"o.	c #9C7300",
"p.	c #936500",
"q.	c #156700",
"r.	c #032000",
"s.	c #377900",
"t.	c #A56C00",
"u.	c #8F7600",
"v.	c #ECBC00",
"w.	c #E4D800",
"x.	c #A47400",
"y.	c #B38400",
"z.	c #E1BA00",
"A.	c #FAD800",
"B.	c #F2CD00",
"C.	c #CBA000",
"D.	c #B18300",
"E.	c #E4CB00",
"F.	c #FEEB00",
"G.	c #B49700",
"H.	c #9C6000",
"I.	c #3B7A00",
"J.	c #011F00",
"K.	c #367400",
"L.	c #B16F00",
"M.	c #8A7700",
"N.	c #FBD200",
"O.	c #FDF000",
"P.	c #B28200",
"Q.	c #EFCA00",
"R.	c #FEDC00",
"S.	c #D3AA00",
"T.	c #AC7B00",
"U.	c #F1E200",
"V.	c #FFF200",
"W.	c #C0A600",
"X.	c #A76400",
"Y.	c #397400",
"Z.	c #005B00",
"`.	c #8E7700",
" +	c #FCDE00",
".+	c #D0B800",
"++	c #9C6800",
"@+	c #E5C000",
"#+	c #FEDD00",
"$+	c #FBD900",
"%+	c #C49800",
"&+	c #C7A700",
"*+	c #FFF300",
"=+	c #CFB500",
"-+	c #985A00",
";+	c #0B5D00",
">+	c #005100",
",+	c #9A6A00",
"'+	c #9A7800",
")+	c #FEDA00",
"!+	c #FFDB00",
"~+	c #FFF400",
"{+	c #BC9E00",
"]+	c #B98D00",
"^+	c #F5D200",
"/+	c #E2BA00",
"(+	c #B99200",
"_+	c #C9B200",
":+	c #895800",
"<+	c #005200",
"[+	c #001500",
"}+	c #7F6100",
"|+	c #937000",
"1+	c #F6CD00",
"2+	c #B79500",
"3+	c #C39900",
"4+	c #FBDA00",
"5+	c #EEC900",
"6+	c #B98C00",
"7+	c #FCEF00",
"8+	c #C29E00",
"9+	c #765C00",
"0+	c #001600",
"a+	c #3E5D00",
"b+	c #987000",
"c+	c #E9B900",
"d+	c #B39100",
"e+	c #C79E00",
"f+	c #F3D000",
"g+	c #B68900",
"h+	c #FEF000",
"i+	c #A36A00",
"j+	c #3C5E00",
"k+	c #000100",
"l+	c #002E00",
"m+	c #A66A00",
"n+	c #C48E00",
"o+	c #C19F00",
"p+	c #C29800",
"q+	c #EFCC00",
"r+	c #B58C00",
"s+	c #F8EF00",
"t+	c #975800",
"u+	c #003300",
"v+	c #635A00",
"w+	c #9A7300",
"x+	c #FEE100",
"y+	c #EDDD00",
"z+	c #AC7D00",
"A+	c #E5BE00",
"B+	c #DCBE00",
"C+	c #CFA600",
"D+	c #555200",
"E+	c #004200",
"F+	c #976600",
"G+	c #DBA900",
"H+	c #915600",
"I+	c #F1CC00",
"J+	c #B88A00",
"K+	c #F4E300",
"L+	c #FFF800",
"M+	c #A06600",
"N+	c #004600",
"O+	c #5F5700",
"P+	c #B17800",
"Q+	c #CEAC00",
"R+	c #D1A900",
"S+	c #BC8F00",
"T+	c #E1BB00",
"U+	c #4C4800",
"V+	c #001C00",
"W+	c #8B5E00",
"X+	c #D6AD00",
"Y+	c #F9E300",
"Z+	c #A16F00",
"`+	c #FBD800",
" @	c #CCA500",
".@	c #E1CE00",
"+@	c #965700",
"@@	c #001D00",
"#@	c #0A4300",
"$@	c #A06700",
"%@	c #C2A200",
"&@	c #D5AD00",
"*@	c #B18600",
"=@	c #FFF500",
"-@	c #D7A800",
";@	c #1B4800",
">@	c #584F00",
",@	c #CE9100",
"'@	c #FFED00",
")@	c #A47100",
"!@	c #F8D600",
"~@	c #C89C00",
"{@	c #FAE200",
"]@	c #F7DF00",
"^@	c #4D3A00",
"/@	c #000500",
"(@	c #000E00",
"_@	c #855900",
":@	c #EDC300",
"<@	c #E3C400",
"[@	c #C69C00",
"}@	c #E9CA00",
"|@	c #BB9B00",
"1@	c #000D00",
"2@	c #0E0C00",
"3@	c #9F5F00",
"4@	c #F8DD00",
"5@	c #E4BD00",
"6@	c #986A00",
"7@	c #D59100",
"8@	c #070100",
"9@	c #1A3B00",
"0@	c #BD7600",
"a@	c #A27000",
"b@	c #F7D400",
"c@	c #A17200",
"d@	c #F9F300",
"e@	c #283E00",
"f@	c #303F00",
"g@	c #CF8E00",
"h@	c #FAEE00",
"i@	c #AC7E00",
"j@	c #FDDE00",
"k@	c #C59A00",
"l@	c #F2D500",
"m@	c #FADC00",
"n@	c #3E3E00",
"o@	c #3D4000",
"p@	c #E2A900",
"q@	c #F6D800",
"r@	c #C19700",
"s@	c #DFB900",
"t@	c #C8AC00",
"u@	c #FCEB00",
"v@	c #524200",
"w@	c #4B4400",
"x@	c #EFBC00",
"y@	c #DFC100",
"z@	c #B18B00",
"A@	c #FEEF00",
"B@	c #644C00",
"C@	c #554700",
"D@	c #F8C900",
"E@	c #D0B100",
"F@	c #DEB600",
"G@	c #EBC500",
"H@	c #A17800",
"I@	c #6F5300",
"J@	c #524400",
"K@	c #FBD100",
"L@	c #C9AA00",
"M@	c #E2BB00",
"N@	c #E7C000",
"O@	c #986E00",
"P@	c #725500",
"Q@	c #453E00",
"R@	c #FAD200",
"S@	c #CAAC00",
"T@	c #DEB500",
"U@	c #9D7300",
"V@	c #695000",
"W@	c #373800",
"X@	c #F9CA00",
"Y@	c #D6BA00",
"Z@	c #D8AF00",
"`@	c #CBA100",
" #	c #AC8400",
".#	c #FDEF00",
"+#	c #594700",
"@#	c #233600",
"##	c #F4BC00",
"$#	c #EFD100",
"%#	c #AE8100",
"&#	c #C2A800",
"*#	c #FBE900",
"=#	c #443E00",
"-#	c #093400",
";#	c #ECA700",
">#	c #F9EE00",
",#	c #9F7000",
"'#	c #865400",
")#	c #F0D400",
"!#	c #2D3800",
"~#	c #B97600",
"{#	c #FBF600",
"]#	c #7E4E00",
"^#	c #FBDC00",
"/#	c #EEC800",
"(#	c #622B00",
"_#	c #F9F900",
":#	c #F5BC00",
"<#	c #0C0200",
"[#	c #000700",
"}#	c #714200",
"|#	c #896600",
"1#	c #EAC600",
"2#	c #C79C00",
"3#	c #6C4400",
"4#	c #FDF500",
"5#	c #C78800",
"6#	c #FAE000",
"7#	c #C29900",
"8#	c #F8D700",
"9#	c #936300",
"0#	c #A18400",
"a#	c #654200",
"b#	c #002C00",
"c#	c #E1BC00",
"d#	c #6F3200",
"e#	c #D5AB00",
"f#	c #642400",
"g#	c #F3DE00",
"h#	c #F5DB00",
"i#	c #002300",
"j#	c #041900",
"k#	c #A76600",
"l#	c #998000",
"m#	c #D0A800",
"n#	c #FDD900",
"o#	c #A17100",
"p#	c #815E00",
"q#	c #FFFF00",
"r#	c #D3A100",
"s#	c #001100",
"t#	c #E8D900",
"u#	c #6A3900",
"v#	c #652E00",
"w#	c #D0C100",
"x#	c #653C00",
"y#	c #002600",
"z#	c #BA9200",
"A#	c #FFF900",
"B#	c #9E8200",
"C#	c #BB9000",
"D#	c #E7C100",
"E#	c #966300",
"F#	c #804E00",
"G#	c #FFFA00",
"H#	c #DFB600",
"I#	c #000F00",
"J#	c #452A00",
"K#	c #FFDA00",
"L#	c #F2EC00",
"M#	c #300000",
"N#	c #E6BE00",
"O#	c #F4D300",
"P#	c #A06F00",
"Q#	c #540B00",
"R#	c #EBE700",
"S#	c #7E5300",
"T#	c #000800",
"U#	c #A87600",
"V#	c #D2C000",
"W#	c #703E00",
"X#	c #F0CE00",
"Y#	c #AD7E00",
"Z#	c #825100",
"`#	c #AE8F00",
" $	c #E6A300",
".$	c #1E2D00",
"+$	c #FADF00",
"@$	c #7F5F00",
"#$	c #8C5F00",
"$$	c #F0CD00",
"%$	c #FCDB00",
"&$	c #B18400",
"*$	c #875400",
"=$	c #6A4500",
"-$	c #FEF900",
";$	c #FCF000",
">$	c #3F3800",
",$	c #000600",
"'$	c #603100",
")$	c #746000",
"!$	c #906200",
"~$	c #EAC400",
"{$	c #F3D200",
"]$	c #8A5700",
"^$	c #6C4200",
"/$	c #FBF700",
"($	c #9A6000",
"_$	c #002500",
":$	c #B58600",
"<$	c #FFD800",
"[$	c #FDF700",
"}$	c #6C5400",
"|$	c #875700",
"1$	c #DBB200",
"2$	c #885600",
"3$	c #663900",
"4$	c #EFE700",
"5$	c #CBA500",
"6$	c #001B00",
"7$	c #C7A300",
"8$	c #FFD900",
"9$	c #FEFD00",
"0$	c #664700",
"a$	c #794900",
"b$	c #B78A00",
"c$	c #F4D200",
"d$	c #925D00",
"e$	c #895600",
"f$	c #603700",
"g$	c #F6F200",
"h$	c #E9BC00",
"i$	c #D6A400",
"j$	c #9B8500",
"k$	c #4C0500",
"l$	c #996700",
"m$	c #C59B00",
"n$	c #F6D200",
"o$	c #FAD700",
"p$	c #CFA700",
"q$	c #9F6E00",
"r$	c #905D00",
"s$	c #6E3900",
"t$	c #856200",
"u$	c #FCFD00",
"v$	c #F9BE00",
"w$	c #042E00",
"x$	c #040C00",
"y$	c #003000",
"z$	c #CDAB00",
"A$	c #E3DE00",
"B$	c #510000",
"C$	c #6B3800",
"D$	c #BF9300",
"E$	c #E2BC00",
"F$	c #FADA00",
"G$	c #E6C200",
"H$	c #C69B00",
"I$	c #9F6F00",
"J$	c #8F5B00",
"K$	c #7A4800",
"L$	c #540000",
"M$	c #D0C700",
"N$	c #EBBF00",
"O$	c #092F00",
"P$	c #010900",
"Q$	c #001300",
"R$	c #BA9900",
"S$	c #B3A900",
"T$	c #582000",
"U$	c #895400",
"V$	c #B88B00",
"W$	c #DFB800",
"X$	c #EFCB00",
"Y$	c #F1CD00",
"Z$	c #D3A900",
"`$	c #BC9100",
" %	c #A37300",
".%	c #925E00",
"+%	c #885500",
"@%	c #7B4700",
"#%	c #632700",
"$%	c #AF9D00",
"%%	c #FAF300",
"&%	c #001F00",
"*%	c #7F5200",
"=%	c #FBF100",
"-%	c #BDA700",
";%	c #6F4D00",
">%	c #5B2900",
",%	c #784600",
"'%	c #845200",
")%	c #8E5A00",
"!%	c #936000",
"~%	c #926000",
"{%	c #8C5800",
"]%	c #875500",
"^%	c #825000",
"/%	c #683400",
"(%	c #6E4700",
"_%	c #AE9800",
":%	c #FFFC00",
"<%	c #FCF400",
"[%	c #9F6B00",
"}%	c #001900",
"|%	c #000200",
"1%	c #333400",
"2%	c #D6A200",
"3%	c #FEF300",
"4%	c #F8F600",
"5%	c #D0B900",
"6%	c #956F00",
"7%	c #693900",
"8%	c #5C1E00",
"9%	c #591B00",
"0%	c #571E00",
"a%	c #571D00",
"b%	c #5A1E00",
"c%	c #5D1F00",
"d%	c #6B3700",
"e%	c #906700",
"f%	c #C5AD00",
"g%	c #F7F000",
"h%	c #E9B100",
"i%	c #433C00",
"j%	c #785500",
"k%	c #DEBC00",
"l%	c #F8EC00",
"m%	c #F1E800",
"n%	c #EDE600",
"o%	c #EEE600",
"p%	c #F0E700",
"q%	c #F6EB00",
"r%	c #E7C400",
"s%	c #856100",
"t%	c #000C00",
"u%	c #6A4600",
"v%	c #D5B000",
"w%	c #FBE400",
"x%	c #D6B700",
"y%	c #775000",
"z%	c #002200",
"A%	c #795900",
"B%	c #DDA400",
"C%	c #F7D700",
"D%	c #FAEC00",
"E%	c #FBED00",
"F%	c #F7DA00",
"G%	c #E0A900",
"H%	c #825F00",
"I%	c #002400",
"J%	c #000B00",
"K%	c #1A0D00",
"L%	c #393D00",
"M%	c #554D00",
"N%	c #6F5C00",
"O%	c #826B00",
"P%	c #8D7600",
"Q%	c #8C7600",
"R%	c #836C00",
"S%	c #705D00",
"T%	c #574F00",
"U%	c #3A3E00",
"V%	c #1C0F00",
". . . . . . . . . . . . . . . . . . . . . . . . . . . . . . . . . . . . . . . . . . . . . . . . . . . . . . . . . . . . . . . . ",
". . . . . . . . . . . . . . . . . . . . . . . . . . . . . . . . . . . . . . . . . . . . . . . . . . . . . . . . . . . . . . . . ",
". . . . . . . . . . . . . . . . . . . . . . . . . . . . . . . . . . . . . . . . . . . . . . . . . . . . . . . . . . . . . . . . ",
". . . . . . . . . . . . . . . . . . . . . . . . . . . . . . . . . . . . . . . . . . . . . . . . . . . . . . . . . . . . . . . . ",
". . . . . . . . . . . . . . . . . . . . . . . . . . + . . . . . . . . . . + . . . . . . . . . . . . . . . . . . . . . . . . . . ",
". . . . . . . . . . . . . . . . . . . . . . . . @ # $ % & * = - - = ; > % $ # @ . . . . . . . . . . . . . . . . . . . . . . . . ",
". . . . . . . . . . . . . . . . . . . . + . , ' ) ! ~ { ] ^ / ( _ ( : < [ } | 1 ' 2 . + . . . . . . . . . . . . . . . . . . . . ",
". . . . . . . . . . . . . . . . . . 3 . 4 5 [ 6 7 8 9 0 a b c d d e f g h i j k l m n o . 3 . . . . . . . . . . . . . . . . . . ",
". . . . . . . . . . . . . . . . . . p q r s t u v w x y z A B B B B A C w D E A F G H I q J . . . . . . . . . . . . . . . . . . ",
". . . . . . . . . . . . . . . . K L M N O P Q D R B A C w S T U U V S W C R A B C X Y Z `  ...K . . . . . . . . . . . . . . . . ",
". . . . . . . . . . . . . . . +.@.#.N $.%.z A &.x *.=.-.j ;.>.,.'.).!.~.{.].^./.(.A A w _.:.<.[.}.. . . . . . . . . . . . . . . ",
". . . . . . . . . . . . 3 . |.1.2.3.C W B B 4.5.6.7.8.9.0.a.b.c.c.d.e.f.g.h.i.j.k.l.Y m.A D n.o.p.q.. 3 . . . . . . . . . . . . ",
". . . . . . . . . . . 3 r.s.t.u.v.E R B X w.x.y.z.A.A Y Y C C R R R C C Y C B B.C.D.E.F.C B C E G.H.I.J.3 . . . . . . . . . . . ",
". . . . . . . . . . . . K.L.M.N.%.m.A O.x.P.Q.B Y R A A A A A A A A A A A A R C C R.S.T.U.z B (.V.W.X.Y.. . . . . . . . . . . . ",
". . . . . . . . . . . Z.~ `. +z m./..+++@+#+R A A A A A A A A A A A A A A A A A A A C $+%+&+*+m.B y =+-+;+. . . . . . . . . . . ",
". . . . . . . . . . >+,+'+)+Y !+~+{+]+^+R A A A A A A A A A A A A A A A A A A A A A A R R /+(+O.(.B X _+:+<+. . . . . . . . . . ",
". . . . . . . . . [+}+|+1+W (.~+2+3+4+C A A A A A A A A A A A A A A A A A A A A A A A A A Y 5+6+7+(.m.~+8+9+0+. . . . . . . . . ",
". . . . . . . . . a+b+c+D B ~+d+e+(.R A A A A A A A A A A A A A A A A A A A A A A A A A A A C f+g+4.B &.h+i+j+. . . . . . . . . ",
". . . . . . . k+l+m+n+%.m.w o+p+#+R A A A A A A A A A A A A A A A A A A A A A A A A A A A A A C q+r+X m.A s+t+u+k+. . . . . . . ",
". . . . . . . . v+w+x+C z y+z+A.C A A A A A A A A A A A A A A A A A A A A A A A A A A A A A A A Y A+B+Q A W C+D+. . . . . . . . ",
". . . . . . k+E+F+G+Q &.V H+I+R A A A A A A A A A A A A A A A A A A A A A A A A A A A A A A A A A Y J+K+(.B L+M+N+k+. . . . . . ",
". . . . . . . O+P+%.A X Q+R+R A A A A A A A A A A A A A A A A A A A A A A A A A A A A A A A A A A A R S+~+A R T+U+. . . . . . . ",
". . . . . . V+W+X+y (.Y+Z+`+A A A A A A A A A A A A A A A A A A A A A A A A A A A A A A A A A A A A C  @.@&.m.E +@@@. . . . . . ",
". . . . . . #@$@&.B y %@&@C A A A A A A A A A A A A A A A A A A A A A A A A A A A A A A A A A A A A A B *@=@A /.-@;@. . . . . . ",
". . . . . 3 >@,@'@A L+)@!@C A A A A A A A A A A A A A A A A A A A A A A A A A A A A A A A A A A A A A Q ~@{@R m.]@^@/@. . . . . ",
". . . . . (@_@:@W R <@[@A A A A A A A A A A A A A A A A A A A A A A A A A A A A A A A A A A A A A A A C }@|@R m.D +@1@. . . . . ",
". . . . k+2@3@4@A z j 5@Y A A A A A A A A A A A A A A A A A A A A A A A A A A A A A A A A A A A A A A A d 6@T B x 7@8@k+. . . . ",
". . . . . 9@0@W m.O.a@b@C A A A A A A A A A A A A A A A A A A A A A A A A A A A A A A A A A A A A A A A Q c@d@B Q $.e@. . . . . ",
". . . . . f@g@%.B h@i@j@R A A A A A A A A A A A A A A A A A A A A A A A A A A A A A A A A A A A A A A A W k@l@Y Y m@n@. . . . . ",
". . . . . o@p@y Y q@r@R R A A A A A A A A A A A A A A A A A A A A A A A A A A A A A A A A A A A A A A A w s@t@D A u@v@. . . . . ",
". . . . . w@x@W W y@&@C A A A A A A A A A A A A A A A A A A A A A A A A A A A A A A A A A A A A A A A A z 0.z@E B A@B@. . . . . ",
". . . . . C@D@w %.E@F@C A A A A A A A A A A A A A A A A A A A A A A A A A A A A A A A A A A A A A A A A z G@H@X B /.I@. . . . . ",
". . . . . J@K@z %.L@M@C A A A A A A A A A A A A A A A A A A A A A A A A A A A A A A A A A A A A A A A A z N@O@X B /.P@. . . . . ",
". . . . . Q@R@z %.S@z.C A A A A A A A A A A A A A A A A A A A A A A A A A A A A A A A A A A A A A A A A w T@U@/.B /.V@. . . . . ",
". . . . . W@X@w Q Y@Z@Y A A A A A A A A A A A A A A A A A A A A A A A A A A A A A A A A A A A A A A A A w `@ #'@A .#+#. . . . . ",
". . . . . @###y z $#r@z A A A A A A A A A A A A A A A A A A A A A A A A A A A A A A A A A A A A A A A A z %#&#x R *#=#. . . . . ",
". . . . . -#;#%.B >#,#Y R A A A A A A A A A A A A A A A A A A A A A A A A A A A A A A A A A A A A A A R m@'#)#w Y c !#. . . . . ",
". . . . k+. ~#x m.{#]#^#R A A A A A A A A A A A A A A A A A A A A A A A A A A A A A A A A A A A A A A z /#(#_#m.Q :#<#. . . . . ",
". . . . . [#}#D m.y |#1#Y A A A A A A A A A A A A A A A A A A A A A A A A A A A A A A A A A A A A A A W 2#3#4#m.x 5#3 . . . . . ",
". . . . . 3 V+6#B R &#7#W A A A A A A A A A A A A A A A A A A A A A A A A A A A A A A A A A A A A A R 8#9#0#Y B D a#k+. . . . . ",
". . . . . . b#c#%.A *.d#B A A A A A A A A A A A A A A A A A A A A A A A A A A A A A A A A A A A A A W e#f#g#R A h#i#. . . . . . ",
". . . . . . j#k#=@A *+l#m#W A A A A A A A A A A A A A A A A A A A A A A A A A A A A A A A A A A A R n#o#p#q#A /.r#s#. . . . . . ",
". . . . . . . (@!+(.!+t#u#(.A A A A A A A A A A A A A A A A A A A A A A A A A A A A A A A A A A A W 3+v#w#!+B '@x#. . . . . . . ",
". . . . . . k+y#z#l.A A#B#C#y A A A A A A A A A A A A A A A A A A A A A A A A A A A A A A A A A w D#E#F#G#A w H#I#. . . . . . . ",
". . . . . . . . J#'@A K#L#M#N#W A A A A A A A A A A A A A A A A A A A A A A A A A A A A A A A z O#P#Q#R#(.B 4.S#. . . . . . . . ",
". . . . . . . k+T#U#x A %.V#W#X#w A A A A A A A A A A A A A A A A A A A A A A A A A A A A A C 4+Y#Z#`#E A w  $. . . . . . . . . ",
". . . . . . . . . .$+$z B '@@$#$$$Q A A A A A A A A A A A A A A A A A A A A A A A A A A A C %$&$*$=$-$(.A ;$>$. . . . . . . . . ",
". . . . . . . . . ,$'$^.&.m.q#)$!$~$Q A A A A A A A A A A A A A A A A A A A A A A A A A W {$i@]$^$/$m.(.V.($k+. . . . . . . . . ",
". . . . . . . . . . _$:$*.m.<$[$}$|$1$C Y A A A A A A A A A A A A A A A A A A A A A C z N@P#2$3$4$!+B V.5$6$. . . . . . . . . . ",
". . . . . . . . . . . 6$7$/.B 8$9$0$a$b$c$w C A A A A A A A A A A A A A A A A A R z $+k@d$e$f$g$!+A y h$k+. . . . . . . . . . . ",
". . . . . . . . . . . . l+i$'@m.(.*.j$k$l$m$n$w z R A A A A A A A A A A A R z Q o$p$q$r$s$t$u$(.B y v$w$. . . . . . . . . . . . ",
". . . . . . . . . . . k+x$y$z$~+&.m.X A$B$C$r D$E$8#Y W w z Y Y Y z w W z F$G$H$I$J$K$L$M$*+(.(.^.N$O$P$. . . . . . . . . . . . ",
". . . . . . . . . . . . k+. Q$R$V.A A R 4.S$T$s$U$Z+V$C+W$~$X$Y$f.G@M@Z$`$ %.%+%@%#%$%%%%.B B ^.z$k+. . . . . . . . . . . . . . ",
". . . . . . . . . . . . . . . &%*%=%W B m.C q#-%;%>%,%'%]$)%.%!%~%r${%e$]%^%/%(%_%:%y m.A z <%[%}%. . . . . . . . . . . . . . . ",
". . . . . . . . . . . . . . . . |%1%2%L+C B A A 3%4%5%6%7%8%9%0%a%b%c%d%e%f%g%4#C A A R L+h%i%. . . . . . . . . . . . . . . . . ",
". . . . . . . . . . . . . . . . . . . j%k%^.E m.(.B %./.E l%m%n%o%p%q%E /.x A (.m.D *+r%s%. . . . . . . . . . . . . . . . . . . ",
". . . . . . . . . . . . . . . . . . . . t%u%v%Y+'@D z A m.(.(.(.(.(.(.m.A z D E w%x%y%/@. . . . . . . . . . . . . . . . . . . . ",
". . . . . . . . . . . . . . . . . . . . . . 1@z%A%B%C%D%h+X x D D x '@h+E%F%G%H%I%J%. . . . . . . . . . . . . . . . . . . . . . ",
". . . . . . . . . . . . . . . . . . . . . . . . . |%K%L%M%N%O%P%Q%R%S%T%U%V%3 . . . . . . . . . . . . . . . . . . . . . . . . . ",
". . . . . . . . . . . . . . . . . . . . . . . . . . . . . . . . . . . . . . . . . . . . . . . . . . . . . . . . . . . . . . . . ",
". . . . . . . . . . . . . . . . . . . . . . . . . . . . . . . . . . . . . . . . . . . . . . . . . . . . . . . . . . . . . . . . ",
". . . . . . . . . . . . . . . . . . . . . . . . . . . . . . . . . . . . . . . . . . . . . . . . . . . . . . . . . . . . . . . . ",
". . . . . . . . . . . . . . . . . . . . . . . . . . . . . . . . . . . . . . . . . . . . . . . . . . . . . . . . . . . . . . . . ",
". . . . . . . . . . . . . . . . . . . . . . . . . . . . . . . . . . . . . . . . . . . . . . . . . . . . . . . . . . . . . . . . "};
